# xmcd
#
# Track frame offsets:
#	182
#	17445
#	30435
#	42810
#	61175
#	71882
#	90772
#	102237
#	116775
#	131395
#	144390
#	155815
#	169420
#	182302
#	195467
#	208680
#
# Disc length: 2947 seconds
#
# Revision: 0
# Processed by: cddbd v1.5.1PL2 Copyright (c) Steve Scherf et al.
# Submitted via: EasyCDDAExtractor 8.0.1.1
#
DISCID=cf0b8110
DTITLE=Herbert Léonard - Master série
DYEAR=1991
DGENRE=Chanson
TTITLE0=Quelque chose tient mon coeur
TTITLE1=Le printemps ne viendra plus
TTITLE2=Pour un peu d'amour
TTITLE3=Il neigeait sur le danube bleu
TTITLE4=Si je ne t'aimais qu'un peu
TTITLE5=Notre histoire
TTITLE6=Personne ne pourra prendre sa place
TTITLE7=Des rêves clairs
TTITLE8=Candida
TTITLE9=Mon amour d'hier
TTITLE10=Du blé, du jonc, des rasis
TTITLE11=Un peu de toi beaucoup de moi
TTITLE12=Les yeux de la nuit
TTITLE13=Mére
TTITLE14=Laissez-entrer le soleil
TTITLE15=Pour être sincère
EXTD=
EXTT0=
EXTT1=
EXTT2=
EXTT3=
EXTT4=
EXTT5=
EXTT6=
EXTT7=
EXTT8=
EXTT9=
EXTT10=
EXTT11=
EXTT12=
EXTT13=
EXTT14=
EXTT15=
PLAYORDER=
